<mxfile host="app.diagrams.net" modified="2021-02-10T06:01:25.422Z" agent="5.0 (X11; Linux x86_64) AppleWebKit/537.36 (KHTML, like Gecko) Chrome/88.0.4324.150 Safari/537.36" etag="aeWeU0rhkW_i9onKDHqp" version="14.3.0" type="github">
  <diagram name="Page-1" id="42789a77-a242-8287-6e28-9cd8cfd52e62">
    <mxGraphModel dx="1422" dy="736" grid="1" gridSize="10" guides="1" tooltips="1" connect="1" arrows="1" fold="1" page="1" pageScale="1" pageWidth="1700" pageHeight="1100" background="#ffffff" math="0" shadow="0">
      <root>
        <mxCell id="0" />
        <mxCell id="1" parent="0" />
        <mxCell id="Z_T5WOkKw4FG-YKkFipD-60" value="事故管理" style="rounded=0;whiteSpace=wrap;html=1;fillColor=#FFFFFF;strokeColor=#0000FF;align=left;" vertex="1" parent="1">
          <mxGeometry x="740" y="475" width="650" height="60" as="geometry" />
        </mxCell>
        <mxCell id="Z_T5WOkKw4FG-YKkFipD-38" value="&lt;font color=&quot;#0000ff&quot;&gt;風險評鑑&lt;/font&gt;" style="rounded=0;whiteSpace=wrap;html=1;fillColor=#FFFFFF;align=right;strokeColor=#0000FF;" vertex="1" parent="1">
          <mxGeometry x="760" y="205" width="210" height="175" as="geometry" />
        </mxCell>
        <mxCell id="Z_T5WOkKw4FG-YKkFipD-5" style="edgeStyle=orthogonalEdgeStyle;rounded=0;orthogonalLoop=1;jettySize=auto;html=1;exitX=0.5;exitY=0;exitDx=0;exitDy=0;startArrow=classic;startFill=1;endArrow=none;endFill=0;" edge="1" parent="1" source="Z_T5WOkKw4FG-YKkFipD-25" target="1ea317790d2ca983-3">
          <mxGeometry relative="1" as="geometry">
            <mxPoint x="285" y="120" as="sourcePoint" />
            <Array as="points">
              <mxPoint x="885" y="50" />
              <mxPoint x="605" y="50" />
            </Array>
          </mxGeometry>
        </mxCell>
        <mxCell id="Z_T5WOkKw4FG-YKkFipD-2" style="edgeStyle=orthogonalEdgeStyle;rounded=0;orthogonalLoop=1;jettySize=auto;html=1;exitX=0.5;exitY=1;exitDx=0;exitDy=0;" edge="1" parent="1" source="1ea317790d2ca983-3" target="1ea317790d2ca983-4">
          <mxGeometry relative="1" as="geometry" />
        </mxCell>
        <mxCell id="Z_T5WOkKw4FG-YKkFipD-57" style="edgeStyle=orthogonalEdgeStyle;rounded=0;orthogonalLoop=1;jettySize=auto;html=1;entryX=1;entryY=0.5;entryDx=0;entryDy=0;" edge="1" parent="1" source="1ea317790d2ca983-3" target="Z_T5WOkKw4FG-YKkFipD-21">
          <mxGeometry relative="1" as="geometry" />
        </mxCell>
        <mxCell id="1ea317790d2ca983-3" value="&lt;span&gt;&lt;font size=&quot;1&quot;&gt;&lt;b style=&quot;font-size: 16px&quot;&gt;Culture&lt;/b&gt;&lt;/font&gt;&lt;/span&gt;" style="ellipse;whiteSpace=wrap;html=1;rounded=0;shadow=1;comic=0;labelBackgroundColor=none;strokeWidth=1;fontFamily=Verdana;fontSize=12;align=center;" parent="1" vertex="1">
          <mxGeometry x="545" y="90" width="120" height="80" as="geometry" />
        </mxCell>
        <mxCell id="Z_T5WOkKw4FG-YKkFipD-18" value="" style="edgeStyle=orthogonalEdgeStyle;rounded=0;orthogonalLoop=1;jettySize=auto;html=1;" edge="1" parent="1" source="1ea317790d2ca983-4" target="Z_T5WOkKw4FG-YKkFipD-3">
          <mxGeometry relative="1" as="geometry" />
        </mxCell>
        <mxCell id="1ea317790d2ca983-4" value="&lt;span&gt;&lt;font size=&quot;1&quot;&gt;&lt;b style=&quot;font-size: 14px&quot;&gt;Risk Appetite&lt;/b&gt;&lt;/font&gt;&lt;/span&gt;" style="ellipse;whiteSpace=wrap;html=1;rounded=0;shadow=1;comic=0;labelBackgroundColor=none;strokeWidth=1;fontFamily=Verdana;fontSize=12;align=center;" parent="1" vertex="1">
          <mxGeometry x="545" y="270" width="120" height="70" as="geometry" />
        </mxCell>
        <mxCell id="Z_T5WOkKw4FG-YKkFipD-19" value="" style="edgeStyle=orthogonalEdgeStyle;rounded=0;orthogonalLoop=1;jettySize=auto;html=1;" edge="1" parent="1" source="Z_T5WOkKw4FG-YKkFipD-3" target="Z_T5WOkKw4FG-YKkFipD-4">
          <mxGeometry relative="1" as="geometry" />
        </mxCell>
        <mxCell id="Z_T5WOkKw4FG-YKkFipD-3" value="&lt;b&gt;&lt;font style=&quot;font-size: 16px&quot;&gt;Strategy&lt;/font&gt;&lt;/b&gt;" style="ellipse;whiteSpace=wrap;html=1;" vertex="1" parent="1">
          <mxGeometry x="552.5" y="380" width="105" height="60" as="geometry" />
        </mxCell>
        <mxCell id="Z_T5WOkKw4FG-YKkFipD-66" value="" style="edgeStyle=orthogonalEdgeStyle;rounded=0;orthogonalLoop=1;jettySize=auto;html=1;" edge="1" parent="1" source="Z_T5WOkKw4FG-YKkFipD-4" target="Z_T5WOkKw4FG-YKkFipD-60">
          <mxGeometry relative="1" as="geometry" />
        </mxCell>
        <mxCell id="Z_T5WOkKw4FG-YKkFipD-4" value="Police&lt;br&gt;Procedure" style="ellipse;whiteSpace=wrap;html=1;" vertex="1" parent="1">
          <mxGeometry x="537.5" y="470" width="135" height="70" as="geometry" />
        </mxCell>
        <mxCell id="Z_T5WOkKw4FG-YKkFipD-15" value="" style="edgeStyle=orthogonalEdgeStyle;rounded=0;orthogonalLoop=1;jettySize=auto;html=1;" edge="1" parent="1" source="Z_T5WOkKw4FG-YKkFipD-9" target="Z_T5WOkKw4FG-YKkFipD-10">
          <mxGeometry relative="1" as="geometry" />
        </mxCell>
        <mxCell id="Z_T5WOkKw4FG-YKkFipD-10" value="behavior" style="ellipse;whiteSpace=wrap;html=1;" vertex="1" parent="1">
          <mxGeometry x="135" y="372" width="70" height="50" as="geometry" />
        </mxCell>
        <mxCell id="Z_T5WOkKw4FG-YKkFipD-14" value="" style="edgeStyle=orthogonalEdgeStyle;rounded=0;orthogonalLoop=1;jettySize=auto;html=1;" edge="1" parent="1" source="Z_T5WOkKw4FG-YKkFipD-9" target="Z_T5WOkKw4FG-YKkFipD-10">
          <mxGeometry relative="1" as="geometry" />
        </mxCell>
        <mxCell id="Z_T5WOkKw4FG-YKkFipD-69" value="" style="edgeStyle=orthogonalEdgeStyle;rounded=0;orthogonalLoop=1;jettySize=auto;html=1;startArrow=classic;startFill=1;endArrow=none;endFill=0;" edge="1" parent="1" source="Z_T5WOkKw4FG-YKkFipD-11" target="Z_T5WOkKw4FG-YKkFipD-20">
          <mxGeometry relative="1" as="geometry" />
        </mxCell>
        <mxCell id="Z_T5WOkKw4FG-YKkFipD-11" value="Training&amp;nbsp;&lt;br&gt;Awareness" style="ellipse;whiteSpace=wrap;html=1;" vertex="1" parent="1">
          <mxGeometry x="120" y="192" width="100" height="70" as="geometry" />
        </mxCell>
        <mxCell id="Z_T5WOkKw4FG-YKkFipD-9" value="ethics" style="ellipse;whiteSpace=wrap;html=1;" vertex="1" parent="1">
          <mxGeometry x="135" y="291" width="70" height="50" as="geometry" />
        </mxCell>
        <mxCell id="Z_T5WOkKw4FG-YKkFipD-16" value="" style="edgeStyle=orthogonalEdgeStyle;rounded=0;orthogonalLoop=1;jettySize=auto;html=1;" edge="1" parent="1" source="Z_T5WOkKw4FG-YKkFipD-11" target="Z_T5WOkKw4FG-YKkFipD-9">
          <mxGeometry relative="1" as="geometry">
            <mxPoint x="170" y="271" as="sourcePoint" />
            <mxPoint x="170" y="386" as="targetPoint" />
          </mxGeometry>
        </mxCell>
        <mxCell id="Z_T5WOkKw4FG-YKkFipD-24" value="relationship&lt;br&gt;mgnt" style="edgeStyle=orthogonalEdgeStyle;rounded=0;orthogonalLoop=1;jettySize=auto;html=1;entryX=0;entryY=1;entryDx=0;entryDy=0;" edge="1" parent="1" source="Z_T5WOkKw4FG-YKkFipD-20" target="1ea317790d2ca983-3">
          <mxGeometry relative="1" as="geometry">
            <Array as="points">
              <mxPoint x="435" y="230" />
              <mxPoint x="563" y="230" />
            </Array>
          </mxGeometry>
        </mxCell>
        <mxCell id="Z_T5WOkKw4FG-YKkFipD-20" value="&lt;b&gt;&lt;font style=&quot;font-size: 16px&quot;&gt;ISM&lt;/font&gt;&lt;/b&gt;" style="rounded=1;whiteSpace=wrap;html=1;fillColor=#ffe6cc;strokeColor=#d79b00;" vertex="1" parent="1">
          <mxGeometry x="280" y="207.5" width="60" height="40" as="geometry" />
        </mxCell>
        <mxCell id="Z_T5WOkKw4FG-YKkFipD-58" value="" style="edgeStyle=orthogonalEdgeStyle;rounded=0;orthogonalLoop=1;jettySize=auto;html=1;" edge="1" parent="1" source="Z_T5WOkKw4FG-YKkFipD-21" target="Z_T5WOkKw4FG-YKkFipD-11">
          <mxGeometry relative="1" as="geometry">
            <Array as="points">
              <mxPoint x="170" y="130" />
            </Array>
          </mxGeometry>
        </mxCell>
        <mxCell id="Z_T5WOkKw4FG-YKkFipD-21" value="&lt;b&gt;&lt;font style=&quot;font-size: 16px&quot;&gt;HR&lt;/font&gt;&lt;/b&gt;" style="rounded=1;whiteSpace=wrap;html=1;fillColor=#FFFFCC;" vertex="1" parent="1">
          <mxGeometry x="275" y="111" width="60" height="38" as="geometry" />
        </mxCell>
        <mxCell id="Z_T5WOkKw4FG-YKkFipD-28" value="" style="edgeStyle=orthogonalEdgeStyle;rounded=0;orthogonalLoop=1;jettySize=auto;html=1;" edge="1" parent="1" source="Z_T5WOkKw4FG-YKkFipD-25" target="Z_T5WOkKw4FG-YKkFipD-27">
          <mxGeometry relative="1" as="geometry" />
        </mxCell>
        <mxCell id="Z_T5WOkKw4FG-YKkFipD-25" value="&lt;b&gt;&lt;font style=&quot;font-size: 16px&quot;&gt;Context&lt;/font&gt;&lt;/b&gt;" style="rounded=0;whiteSpace=wrap;html=1;fillColor=#FFFFFF;" vertex="1" parent="1">
          <mxGeometry x="795" y="160" width="100" height="30" as="geometry" />
        </mxCell>
        <mxCell id="Z_T5WOkKw4FG-YKkFipD-34" value="" style="edgeStyle=orthogonalEdgeStyle;rounded=0;orthogonalLoop=1;jettySize=auto;html=1;entryX=0.5;entryY=0;entryDx=0;entryDy=0;" edge="1" parent="1" source="Z_T5WOkKw4FG-YKkFipD-27" target="Z_T5WOkKw4FG-YKkFipD-29">
          <mxGeometry relative="1" as="geometry" />
        </mxCell>
        <mxCell id="Z_T5WOkKw4FG-YKkFipD-27" value="識別分所欲風險情境" style="rounded=0;whiteSpace=wrap;html=1;fillColor=#FFFFFF;" vertex="1" parent="1">
          <mxGeometry x="780" y="220" width="130" height="30" as="geometry" />
        </mxCell>
        <mxCell id="Z_T5WOkKw4FG-YKkFipD-32" value="" style="edgeStyle=orthogonalEdgeStyle;rounded=0;orthogonalLoop=1;jettySize=auto;html=1;" edge="1" parent="1" source="Z_T5WOkKw4FG-YKkFipD-29" target="Z_T5WOkKw4FG-YKkFipD-30">
          <mxGeometry relative="1" as="geometry" />
        </mxCell>
        <mxCell id="Z_T5WOkKw4FG-YKkFipD-29" value="分析風險（數學）" style="rounded=0;whiteSpace=wrap;html=1;fillColor=#FFFFFF;" vertex="1" parent="1">
          <mxGeometry x="780" y="280" width="130" height="30" as="geometry" />
        </mxCell>
        <mxCell id="Z_T5WOkKw4FG-YKkFipD-36" value="" style="edgeStyle=orthogonalEdgeStyle;rounded=0;orthogonalLoop=1;jettySize=auto;html=1;" edge="1" parent="1" source="Z_T5WOkKw4FG-YKkFipD-30" target="Z_T5WOkKw4FG-YKkFipD-35">
          <mxGeometry relative="1" as="geometry" />
        </mxCell>
        <mxCell id="Z_T5WOkKw4FG-YKkFipD-30" value="評估風險" style="rounded=0;whiteSpace=wrap;html=1;fillColor=#FFFFFF;" vertex="1" parent="1">
          <mxGeometry x="780" y="340" width="130" height="30" as="geometry" />
        </mxCell>
        <mxCell id="Z_T5WOkKw4FG-YKkFipD-44" style="edgeStyle=orthogonalEdgeStyle;rounded=0;orthogonalLoop=1;jettySize=auto;html=1;entryX=0.5;entryY=1;entryDx=0;entryDy=0;" edge="1" parent="1" source="Z_T5WOkKw4FG-YKkFipD-35" target="Z_T5WOkKw4FG-YKkFipD-42">
          <mxGeometry relative="1" as="geometry" />
        </mxCell>
        <mxCell id="Z_T5WOkKw4FG-YKkFipD-35" value="處理風險" style="rounded=0;whiteSpace=wrap;html=1;fillColor=#FFFFFF;" vertex="1" parent="1">
          <mxGeometry x="780" y="400" width="130" height="30" as="geometry" />
        </mxCell>
        <mxCell id="Z_T5WOkKw4FG-YKkFipD-41" style="edgeStyle=orthogonalEdgeStyle;rounded=0;orthogonalLoop=1;jettySize=auto;html=1;entryX=0;entryY=0.5;entryDx=0;entryDy=0;exitX=0.5;exitY=0;exitDx=0;exitDy=0;" edge="1" parent="1" source="Z_T5WOkKw4FG-YKkFipD-40" target="Z_T5WOkKw4FG-YKkFipD-25">
          <mxGeometry relative="1" as="geometry">
            <Array as="points">
              <mxPoint x="730" y="175" />
            </Array>
          </mxGeometry>
        </mxCell>
        <mxCell id="Z_T5WOkKw4FG-YKkFipD-40" value="溝通與聽取專家建議" style="rounded=0;whiteSpace=wrap;html=1;fillColor=#FFFFFF;" vertex="1" parent="1">
          <mxGeometry x="720" y="225" width="20" height="140" as="geometry" />
        </mxCell>
        <mxCell id="Z_T5WOkKw4FG-YKkFipD-45" style="edgeStyle=orthogonalEdgeStyle;rounded=0;orthogonalLoop=1;jettySize=auto;html=1;entryX=1;entryY=0.5;entryDx=0;entryDy=0;" edge="1" parent="1" source="Z_T5WOkKw4FG-YKkFipD-42" target="Z_T5WOkKw4FG-YKkFipD-25">
          <mxGeometry relative="1" as="geometry">
            <Array as="points">
              <mxPoint x="1000" y="175" />
            </Array>
          </mxGeometry>
        </mxCell>
        <mxCell id="Z_T5WOkKw4FG-YKkFipD-42" value="監測與審查" style="rounded=0;whiteSpace=wrap;html=1;fillColor=#FFFFFF;" vertex="1" parent="1">
          <mxGeometry x="990" y="225" width="20" height="140" as="geometry" />
        </mxCell>
        <mxCell id="Z_T5WOkKw4FG-YKkFipD-61" value="" style="edgeStyle=orthogonalEdgeStyle;rounded=0;orthogonalLoop=1;jettySize=auto;html=1;" edge="1" parent="1" source="Z_T5WOkKw4FG-YKkFipD-49" target="Z_T5WOkKw4FG-YKkFipD-50">
          <mxGeometry relative="1" as="geometry" />
        </mxCell>
        <mxCell id="Z_T5WOkKw4FG-YKkFipD-49" value="Prepare" style="rounded=0;whiteSpace=wrap;html=1;strokeColor=#000000;fillColor=#FFFFFF;" vertex="1" parent="1">
          <mxGeometry x="820" y="490" width="80" height="30" as="geometry" />
        </mxCell>
        <mxCell id="Z_T5WOkKw4FG-YKkFipD-62" value="" style="edgeStyle=orthogonalEdgeStyle;rounded=0;orthogonalLoop=1;jettySize=auto;html=1;" edge="1" parent="1" source="Z_T5WOkKw4FG-YKkFipD-50" target="Z_T5WOkKw4FG-YKkFipD-51">
          <mxGeometry relative="1" as="geometry" />
        </mxCell>
        <mxCell id="Z_T5WOkKw4FG-YKkFipD-50" value="Protect" style="rounded=0;whiteSpace=wrap;html=1;strokeColor=#000000;fillColor=#FFFFFF;" vertex="1" parent="1">
          <mxGeometry x="930" y="490" width="80" height="30" as="geometry" />
        </mxCell>
        <mxCell id="Z_T5WOkKw4FG-YKkFipD-63" value="" style="edgeStyle=orthogonalEdgeStyle;rounded=0;orthogonalLoop=1;jettySize=auto;html=1;" edge="1" parent="1" source="Z_T5WOkKw4FG-YKkFipD-51" target="Z_T5WOkKw4FG-YKkFipD-53">
          <mxGeometry relative="1" as="geometry" />
        </mxCell>
        <mxCell id="Z_T5WOkKw4FG-YKkFipD-51" value="Detect" style="rounded=0;whiteSpace=wrap;html=1;strokeColor=#000000;fillColor=#FFFFFF;" vertex="1" parent="1">
          <mxGeometry x="1045" y="490" width="80" height="30" as="geometry" />
        </mxCell>
        <mxCell id="Z_T5WOkKw4FG-YKkFipD-52" value="Respond" style="rounded=0;whiteSpace=wrap;html=1;strokeColor=#000000;fillColor=#FFFFFF;" vertex="1" parent="1">
          <mxGeometry x="1270" y="490" width="80" height="30" as="geometry" />
        </mxCell>
        <mxCell id="Z_T5WOkKw4FG-YKkFipD-64" value="" style="edgeStyle=orthogonalEdgeStyle;rounded=0;orthogonalLoop=1;jettySize=auto;html=1;" edge="1" parent="1" source="Z_T5WOkKw4FG-YKkFipD-53" target="Z_T5WOkKw4FG-YKkFipD-52">
          <mxGeometry relative="1" as="geometry" />
        </mxCell>
        <mxCell id="Z_T5WOkKw4FG-YKkFipD-53" value="Triage" style="rounded=0;whiteSpace=wrap;html=1;strokeColor=#000000;fillColor=#FFFFFF;" vertex="1" parent="1">
          <mxGeometry x="1160" y="490" width="80" height="30" as="geometry" />
        </mxCell>
        <mxCell id="Z_T5WOkKw4FG-YKkFipD-55" value="&lt;font style=&quot;font-size: 16px&quot;&gt;&lt;b&gt;BIA&lt;/b&gt;&lt;/font&gt;" style="ellipse;whiteSpace=wrap;html=1;strokeColor=#000000;fillColor=#FFFFFF;" vertex="1" parent="1">
          <mxGeometry x="420" y="273.33" width="100" height="66.67" as="geometry" />
        </mxCell>
      </root>
    </mxGraphModel>
  </diagram>
</mxfile>
